<svg id="Camada_1" data-name="Camada 1" xmlns="http://www.w3.org/2000/svg" viewBox="0 0 864.84499 520.27443">
  <defs>
    <style>
      .cls-1 {
        fill: #18819d;
      }

      .cls-2 {
        fill: #54abbf;
      }

      .cls-3 {
        fill: #b8dbde;
      }

      .cls-4 {
        fill: #80c41c;
      }

      .cls-5 {
        fill: #2792ac;
      }

      .cls-6 {
        fill: #84c4d2;
      }

      .cls-7 {
        fill: #177791;
      }

      .cls-8 {
        font-size: 44.52211px;
        fill: #555557;
        font-family: SourceSerifPro-Light, Source Serif Pro;
        font-weight: 300;
      }

      .cls-9 {
        letter-spacing: -0.00399em;
      }

      .cls-10 {
        letter-spacing: -0.01599em;
      }

      .cls-11 {
        letter-spacing: -0.01em;
      }

      .cls-12 {
        letter-spacing: -0.01399em;
      }
    </style>
  </defs>
  <title>5rs logo</title>
  <g>
    <polygon class="cls-1" points="58.084 125.087 384.393 170.278 425.117 98.674 42.409 98.674 58.084 125.087"/>
    <path class="cls-2" d="M361.3324,209.15191c-13.17614,1.60953-243.20712,20.66577-243.20712,20.66577l22.14423,38.35492L320.59914,279.704Z"/>
    <polygon class="cls-3" points="294.458 324.981 186.607 348.432 233.763 430.108 294.458 324.981"/>
    <polyline class="cls-4" points="320.599 279.704 294.459 324.981 186.607 348.432 140.273 268.178"/>
    <polygon class="cls-5" points="118.128 229.823 57.765 125.271 57.765 125.271 383.931 170.01 383.931 170.01 361.333 209.151 118.128 229.823"/>
    <polygon class="cls-6" points="140.273 268.178 186.607 348.432 294.459 324.981 320.599 279.704 140.273 268.178"/>
    <path class="cls-7" d="M462.23561,219.13958c11.23415,10.74147,15.28949,26.73331,13.317,41.84333-4.27622,32.7309-31.52465,59.92152-63.89316,65.18655-7.26337,1.18209-18.82367-14.3999-11.42915-15.60183a72.27754,72.27754,0,0,0,54.46924-41.971c4.51092-10.34715,7.32032-22.80049,3.9587-33.90953-4.7853-15.82014-23.41742-7.94156-34.38927-3.50744-5.88974,2.38057-15.56733-7.73362-13.5155-13.51463A365.7185,365.7185,0,0,1,432.466,168.34516c1.51169-2.84736,4.5299-2.83787,7.54811-1.38916.18119-.006.36066-.01467.56257-.00777a251.7125,251.7125,0,0,0,49.35261-2.75849c7.26682-1.14758,18.80642,14.437,11.42915,15.60183a268.19215,268.19215,0,0,1-52.64,3.22184,6.24784,6.24784,0,0,1-2.07772-.49009q-6.99934,13.44345-12.858,27.37871C443.87441,208.877,453.70732,210.98662,462.23561,219.13958Z"/>
    <path class="cls-7" d="M581.95177,282.31054c-.85766,2.315-1.67218,4.64552-2.49188,6.97346a313.4165,313.4165,0,0,0,41.984,28.132c31.13465,17.67783,66.637,31.43578,103.00388,28.79032,4.79565-.34945,3.85171,5.448,2.43838,8.02267a14.793,14.793,0,0,1-11.40844,7.59384C678.141,364.53815,641.1925,350.55672,609.214,332.4a350.02782,350.02782,0,0,1-36.203-23.38637q-5.33233,17.63945-9.291,35.69907c-1.65492,7.60764-17.15322-4.2909-15.60184-11.42829,2.68688-12.3593,5.90872-24.559,9.58786-36.60159a188.13326,188.13326,0,0,1-20.15072-20.4415c-4.97513-5.93374,9.895-19.03248,14.73037-13.26268.85248,1.01642,1.7343,2.013,2.61267,3.0113a26.65035,26.65035,0,0,0,12.75793,1.60747,468.12069,468.12069,0,0,1,49.7754-95.78107c3.9587-5.85781,18.45956,7.442,14.01594,14.01594a452.18166,452.18166,0,0,0-41.36273,76.0471c4.14162-1.48494,8.00023-2.96989,11.29282-4.0726a315.8293,315.8293,0,0,0,44.43617-18.52254c25.12066-12.95034,48.29132-30.41159,65.4687-53.04815,6.80951-8.97438,19.69686-29.59189,4.94406-37.32637-10.8476-5.68524-24.68752-4.88712-36.49633-4.13559a256.65274,256.65274,0,0,0-89.11219,22.49074,251.08847,251.08847,0,0,0-40.826,23.20172c-8.26254,5.79741-31.61784,20.35348-26.26479,33.3392,4.93716,11.977-10.75269,7.22195-13.852-.29768-8.3678-20.2974,8.50241-34.4143,23.62451-45.29986a266.66755,266.66755,0,0,1,54.2449-30.15274c31.93019-13.12722,71.015-23.18791,105.81156-19.22835,14.15572,1.61092,28.41844,6.737,37.54381,18.22659,10.9753,13.82094,9.1806,30.10011.35032,44.563-18.00571,29.48922-48.53119,50.86948-79.05323,65.80607a336.35352,336.35352,0,0,1-50.19129,19.43629A196.32842,196.32842,0,0,1,581.95177,282.31054Z"/>
    <path class="cls-7" d="M758.29263,294.44482a36.34018,36.34018,0,0,1,1.23955,15.32449c-2.39765,16.85009-18.51372,37.7072-36.82884,24.01424-4.36743-3.26524,8.04028-5.44859,14.28481-12.96253,2.44057-2.9367,14.05293-21.33858-.469-37.9304-4.8231-6.06862-10.78842-11.02879-14.40973-18.16611-6.24342-12.29813-3.804-31.79914,13.74228-30.51689,5.26808.38537,10.47656,4.7506,12.65967,9.41678,1.52957,3.27566,2.08975,9.46744-3.28559,9.07511-11.26915-.8214-7.92992,11.93561-3.671,17.04675,1.62095,1.94374,3.33526,3.78519,5.02573,5.64451C746.58051,275.39077,755.96407,286.37517,758.29263,294.44482Z"/>
    <text class="cls-8" transform="translate(396.40711 420.74501)"><tspan class="cls-9">P</tspan><tspan class="cls-10" x="25.7334" y="0">r</tspan><tspan x="43.32031" y="0">o</tspan><tspan class="cls-11" x="67.45117" y="0">d</tspan><tspan x="92.42773" y="0">utos li</tspan><tspan class="cls-12" x="214.28223" y="0">x</tspan><tspan x="236.36523" y="0">o ze</tspan><tspan class="cls-10" x="313.74219" y="0">r</tspan><tspan x="331.3291" y="0">o</tspan></text>
  </g>
</svg>
